G04 ================== begin FILE IDENTIFICATION RECORD ==================*
G04 Layout Name:  C:/USERS/USER/DESKTOP/VSCODE_ORCAD/WORKSPACE/CAD3/allegro/CAD3.brd*
G04 Film Name:    Design*
G04 File Format:  Gerber RS274X*
G04 File Origin:  Cadence Allegro 17.2-P019*
G04 Origin Date:  Wed Jul 31 16:17:33 2019*
G04 *
G04 Layer:  SURFACE FINISHES/ENIG_TOP*
G04 Layer:  SURFACE FINISHES/ENIG_BOTTOM*
G04 Layer:  SURFACE FINISHES/ENEPIG_TOP*
G04 Layer:  SURFACE FINISHES/ENEPIG_BOTTOM*
G04 Layer:  SURFACE FINISHES/IMMERSION_TIN_TOP*
G04 Layer:  SURFACE FINISHES/IMMERSION_TIN_BOTTOM*
G04 Layer:  SURFACE FINISHES/IMMERSION_SILVER_TOP*
G04 Layer:  SURFACE FINISHES/IMMERSION_SILVER_BOTTOM*
G04 Layer:  SURFACE FINISHES/OSP_TOP*
G04 Layer:  SURFACE FINISHES/OSP_BOTTOM*
G04 Layer:  SURFACE FINISHES/GOLD_HARD_TOP*
G04 Layer:  SURFACE FINISHES/GOLD_HARD_BOTTOM*
G04 Layer:  SURFACE FINISHES/GOLD_SOFT_TOP*
G04 Layer:  SURFACE FINISHES/GOLD_SOFT_BOTTOM*
G04 Layer:  SURFACE FINISHES/TIN_PLATE_TOP*
G04 Layer:  SURFACE FINISHES/TIN_PLATE_BOTTOM*
G04 Layer:  SURFACE FINISHES/CARBON_TOP*
G04 Layer:  SURFACE FINISHES/CARBON_BOTTOM*
G04 Layer:  SURFACE FINISHES/SILVER_INK_TOP*
G04 Layer:  SURFACE FINISHES/SILVER_INK_BOTTOM*
G04 Layer:  RIGID FLEX/ZONE_OUTLINE*
G04 Layer:  RIGID FLEX/BEND_AREA*
G04 Layer:  RIGID FLEX/BEND_LINE*
G04 Layer:  RIGID FLEX/TRANSITION_ZONE*
G04 Layer:  RIGID FLEX/COVERLAY_TOP*
G04 Layer:  RIGID FLEX/COVERLAY_BOTTOM*
G04 Layer:  RIGID FLEX/EMI_SHIELD_TOP*
G04 Layer:  RIGID FLEX/EMI_SHIELD_BOTTOM*
G04 Layer:  RIGID FLEX/STIFFENER_TOP*
G04 Layer:  RIGID FLEX/STIFFENER_BOTTOM*
G04 Layer:  RIGID FLEX/STIFFENER_METAL_TOP*
G04 Layer:  RIGID FLEX/STIFFENER_METAL_BOTTOM*
G04 Layer:  VIA CLASS/BOTTOM*
G04 Layer:  VIA CLASS/TOP*
G04 Layer:  ROUTE KEEPOUT/ALL*
G04 Layer:  ROUTE KEEPIN/ALL*
G04 Layer:  REF DES/SILKSCREEN_TOP*
G04 Layer:  REF DES/SILKSCREEN_BOTTOM*
G04 Layer:  PIN/BOTTOM*
G04 Layer:  PIN/TOP*
G04 Layer:  PACKAGE KEEPIN/ALL*
G04 Layer:  PACKAGE GEOMETRY/PIN_NUMBER*
G04 Layer:  PACKAGE GEOMETRY/SILKSCREEN_TOP*
G04 Layer:  PACKAGE GEOMETRY/SILKSCREEN_BOTTOM*
G04 Layer:  PACKAGE GEOMETRY/SOLDERMASK_TOP*
G04 Layer:  PACKAGE GEOMETRY/SOLDERMASK_BOTTOM*
G04 Layer:  PACKAGE GEOMETRY/PASTEMASK_TOP*
G04 Layer:  PACKAGE GEOMETRY/PASTEMASK_BOTTOM*
G04 Layer:  MANUFACTURING/PHOTOPLOT_OUTLINE*
G04 Layer:  MANUFACTURING/NO_GLOSS_ALL*
G04 Layer:  MANUFACTURING/NO_GLOSS_TOP*
G04 Layer:  MANUFACTURING/NO_GLOSS_BOTTOM*
G04 Layer:  MANUFACTURING/NO_GLOSS_INTERNAL*
G04 Layer:  MANUFACTURING/NCDRILL_LEGEND*
G04 Layer:  MANUFACTURING/NCDRILL_FIGURE*
G04 Layer:  MANUFACTURING/PROBE_TOP*
G04 Layer:  MANUFACTURING/PROBE_BOTTOM*
G04 Layer:  MANUFACTURING/AUTOSILK_TOP*
G04 Layer:  MANUFACTURING/AUTOSILK_BOTTOM*
G04 Layer:  MANUFACTURING/NO_PROBE_TOP*
G04 Layer:  MANUFACTURING/NO_PROBE_BOTTOM*
G04 Layer:  MANUFACTURING/XSECTION_CHART*
G04 Layer:  MANUFACTURING/NCLEGEND-1-2*
G04 Layer:  ETCH/BOTTOM*
G04 Layer:  ETCH/TOP*
G04 Layer:  DRAWING FORMAT/OUTLINE*
G04 Layer:  DRAWING FORMAT/TITLE_BLOCK*
G04 Layer:  DRAWING FORMAT/TITLE_DATA*
G04 Layer:  DRAWING FORMAT/REVISION_BLOCK*
G04 Layer:  DRAWING FORMAT/REVISION_DATA*
G04 Layer:  BOARD GEOMETRY/OUTLINE*
G04 Layer:  BOARD GEOMETRY/SILKSCREEN_TOP*
G04 Layer:  BOARD GEOMETRY/SILKSCREEN_BOTTOM*
G04 Layer:  BOARD GEOMETRY/SOLDERMASK_TOP*
G04 Layer:  BOARD GEOMETRY/SOLDERMASK_BOTTOM*
G04 Layer:  BOARD GEOMETRY/DESIGN_OUTLINE*
G04 *
G04 Offset:    (0.000 0.000)*
G04 Mirror:    No*
G04 Mode:      Positive*
G04 Rotation:  0*
G04 FullContactRelief:  No*
G04 UndefLineWidth:     0.000*
G04 ================== end FILE IDENTIFICATION RECORD ====================*
%FSLAX25Y25*MOMM*%
%IR0*IPPOS*OFA0.00000B0.00000*MIA0B0*SFA1.00000B1.00000*%
%ADD16C,1.524*%
%ADD18C,1.651*%
%ADD19R,1.524X1.524*%
%AMMACRO13*
1,1,0.0,-.508,.3175*
20,1,0.0,-.508,.3175,-.500282,.405713,0.0*
1,1,0.0,-.500282,.405713*
20,1,0.0,-.500282,.405713,-.477364,.491246,0.0*
1,1,0.0,-.477364,.491246*
20,1,0.0,-.477364,.491246,-.439941,.5715,0.0*
1,1,0.0,-.439941,.5715*
20,1,0.0,-.439941,.5715,-.389151,.644036,0.0*
1,1,0.0,-.389151,.644036*
20,1,0.0,-.389151,.644036,-.326536,.706651,0.0*
1,1,0.0,-.326536,.706651*
20,1,0.0,-.326536,.706651,-.254,.757441,0.0*
1,1,0.0,-.254,.757441*
20,1,0.0,-.254,.757441,-.173746,.794864,0.0*
1,1,0.0,-.173746,.794864*
20,1,0.0,-.173746,.794864,-.088213,.817782,0.0*
1,1,0.0,-.088213,.817782*
20,1,0.0,-.088213,.817782,0.0,.8255,0.0*
1,1,0.0,0.0,.8255*
20,1,0.0,0.0,.8255,.088213,.817782,0.0*
1,1,0.0,.088213,.817782*
20,1,0.0,.088213,.817782,.173746,.794864,0.0*
1,1,0.0,.173746,.794864*
20,1,0.0,.173746,.794864,.254,.757441,0.0*
1,1,0.0,.254,.757441*
20,1,0.0,.254,.757441,.326536,.706651,0.0*
1,1,0.0,.326536,.706651*
20,1,0.0,.326536,.706651,.389151,.644036,0.0*
1,1,0.0,.389151,.644036*
20,1,0.0,.389151,.644036,.439941,.5715,0.0*
1,1,0.0,.439941,.5715*
20,1,0.0,.439941,.5715,.477364,.491246,0.0*
1,1,0.0,.477364,.491246*
20,1,0.0,.477364,.491246,.500282,.405713,0.0*
1,1,0.0,.500282,.405713*
20,1,0.0,.500282,.405713,.508,.3175,0.0*
1,1,0.0,.508,.3175*
20,1,0.0,.508,.3175,.508,-.3175,0.0*
1,1,0.0,.508,-.3175*
20,1,0.0,.508,-.3175,.500282,-.405713,0.0*
1,1,0.0,.500282,-.405713*
20,1,0.0,.500282,-.405713,.477364,-.491246,0.0*
1,1,0.0,.477364,-.491246*
20,1,0.0,.477364,-.491246,.439941,-.5715,0.0*
1,1,0.0,.439941,-.5715*
20,1,0.0,.439941,-.5715,.389151,-.644036,0.0*
1,1,0.0,.389151,-.644036*
20,1,0.0,.389151,-.644036,.326536,-.706651,0.0*
1,1,0.0,.326536,-.706651*
20,1,0.0,.326536,-.706651,.254,-.757441,0.0*
1,1,0.0,.254,-.757441*
20,1,0.0,.254,-.757441,.173746,-.794864,0.0*
1,1,0.0,.173746,-.794864*
20,1,0.0,.173746,-.794864,.088213,-.817782,0.0*
1,1,0.0,.088213,-.817782*
20,1,0.0,.088213,-.817782,0.0,-.8255,0.0*
1,1,0.0,0.0,-.8255*
20,1,0.0,0.0,-.8255,-.088213,-.817782,0.0*
1,1,0.0,-.088213,-.817782*
20,1,0.0,-.088213,-.817782,-.173746,-.794864,0.0*
1,1,0.0,-.173746,-.794864*
20,1,0.0,-.173746,-.794864,-.254,-.757441,0.0*
1,1,0.0,-.254,-.757441*
20,1,0.0,-.254,-.757441,-.326536,-.706651,0.0*
1,1,0.0,-.326536,-.706651*
20,1,0.0,-.326536,-.706651,-.389151,-.644036,0.0*
1,1,0.0,-.389151,-.644036*
20,1,0.0,-.389151,-.644036,-.439941,-.5715,0.0*
1,1,0.0,-.439941,-.5715*
20,1,0.0,-.439941,-.5715,-.477364,-.491246,0.0*
1,1,0.0,-.477364,-.491246*
20,1,0.0,-.477364,-.491246,-.500282,-.405713,0.0*
1,1,0.0,-.500282,-.405713*
20,1,0.0,-.500282,-.405713,-.508,-.3175,0.0*
1,1,0.0,-.508,-.3175*
20,1,0.0,-.508,-.3175,-.508,.3175,0.0*
1,1,0.0,-.508,.3175*
%
%ADD13MACRO13*%
%AMMACRO14*
1,1,0.0,.635,0.0*
20,1,0.0,.635,0.0,.3175,.549926,0.0*
1,1,0.0,.3175,.549926*
20,1,0.0,.3175,.549926,-.3175,.549926,0.0*
1,1,0.0,-.3175,.549926*
20,1,0.0,-.3175,.549926,-.635,0.0,0.0*
1,1,0.0,-.635,0.0*
20,1,0.0,-.635,0.0,-.3175,-.549926,0.0*
1,1,0.0,-.3175,-.549926*
20,1,0.0,-.3175,-.549926,.3175,-.549926,0.0*
1,1,0.0,.3175,-.549926*
20,1,0.0,.3175,-.549926,.635,0.0,0.0*
1,1,0.0,.635,0.0*
%
%ADD14MACRO14*%
%AMMACRO15*
1,1,0.0,0.0,.762*
20,1,0.0,0.0,.762,.762,-.762,0.0*
1,1,0.0,.762,-.762*
20,1,0.0,.762,-.762,-.762,-.762,0.0*
1,1,0.0,-.762,-.762*
20,1,0.0,-.762,-.762,0.0,.762,0.0*
1,1,0.0,0.0,.762*
%
%ADD15MACRO15*%
%AMMACRO17*
1,1,0.0,0.0,.8255*
20,1,0.0,0.0,.8255,.8255,-.8255,0.0*
1,1,0.0,.8255,-.8255*
20,1,0.0,.8255,-.8255,-.8255,-.8255,0.0*
1,1,0.0,-.8255,-.8255*
20,1,0.0,-.8255,-.8255,0.0,.8255,0.0*
1,1,0.0,0.0,.8255*
%
%ADD17MACRO17*%
%ADD11C,.635*%
%AMMACRO12*
1,1,0.0,-.666,-.952*
20,1,0.0,-.666,-.952,.667,.953,0.0*
1,1,0.0,.667,.953*
1,1,0.0,-.666,.953*
20,1,0.0,-.666,.953,.667,-.952,0.0*
1,1,0.0,.667,-.952*
%
%ADD12MACRO12*%
%AMMACRO10*
1,1,0.0,0.0,.3175*
20,1,0.0,0.0,.3175,.3175,-.3175,0.0*
1,1,0.0,.3175,-.3175*
20,1,0.0,.3175,-.3175,-.3175,-.3175,0.0*
1,1,0.0,-.3175,-.3175*
20,1,0.0,-.3175,-.3175,0.0,.3175,0.0*
1,1,0.0,0.0,.3175*
%
%ADD10MACRO10*%
%ADD20C,1.*%
%ADD21C,.5*%
%ADD22C,2.402*%
%ADD23C,2.274*%
G75*
%LPD*%
G75*
G36*
G01X762200Y500000D02*
Y762200D01*
X500000D01*
Y2624300D01*
G03X553700Y2637800I-35J113691D01*
G01X811000D01*
X1052700Y2879500D01*
Y5546500D01*
X1248000Y5741800D01*
X1429500D01*
G02X1437300Y5725000I3J-10209D01*
G03X1463800Y5555000I86708J-73549D01*
G02X1458400Y5536200I-5430J-8616D01*
G01X1365900D01*
X1258300Y5428600D01*
Y4273400D01*
X1352400Y4179300D01*
X1430400D01*
G03X1431900Y4331500I93618J75185D01*
G01X1430300Y4329700D01*
X1414600D01*
X1408700Y4335600D01*
Y4775400D01*
G02X1425100Y4783500I10210J-19D01*
G03X1447800Y4775800I22758J29780D01*
G01X1600200D01*
G03X1637700Y4813300I0J37500D01*
G01Y4965700D01*
G03X1600200Y5003200I-37500J0D01*
G01X1447800D01*
G03X1425100Y4995500I58J-37480D01*
G02X1408700Y5003600I-6190J8119D01*
G01Y5366400D01*
X1428100Y5385800D01*
X2013100D01*
X2107200Y5479900D01*
Y5566200D01*
G03X2027100Y5765100I-75188J85299D01*
G01X2024900Y5765000D01*
X1980200Y5809600D01*
Y6129400D01*
G03X1829800I-75200J93600D01*
G01Y5768200D01*
G02X1816200Y5758600I-10194J8D01*
G03X1810900Y5760300I-37364J-107376D01*
G01X1629000Y5942200D01*
X1165000D01*
X852300Y5629500D01*
Y2962500D01*
X728000Y2838200D01*
X553700D01*
G03X500000Y2851700I-53735J-100191D01*
G01Y2878300D01*
G03Y3105700I0J113700D01*
G01Y3132300D01*
G03Y3359700I0J113700D01*
G01Y3386300D01*
G03Y3613700I0J113700D01*
G01Y5185600D01*
G02X517200Y5193000I10196J-9D01*
G03Y5367000I82800J87000D01*
G02X500000Y5374400I-7004J7409D01*
G01Y5439600D01*
G02X517200Y5447000I10196J-9D01*
G03Y5621000I82800J87000D01*
G02X500000Y5628400I-7004J7409D01*
G01Y6159300D01*
X825700D01*
Y6500000D01*
X9225800D01*
Y6225800D01*
X9500000D01*
Y3367700D01*
G03Y3140300I0J-113700D01*
G01Y3113700D01*
G03Y2886300I0J-113700D01*
G01Y825700D01*
X9207300D01*
Y500000D01*
X762200D01*
G37*
%LPC*%
G75*
G36*
G01X8370800Y3276800D02*
Y3429200D01*
G02X8408300Y3466700I37500J0D01*
G01X8560700D01*
G02X8598200Y3429200I0J-37500D01*
G01Y3276800D01*
G02X8560700Y3239300I-37500J0D01*
G01X8408300D01*
G02X8370800Y3276800I0J37500D01*
G37*
G36*
G01X5029800Y3860800D02*
Y4013200D01*
G02X5067300Y4050700I37500J0D01*
G01X5219700D01*
G02X5257200Y4013200I0J-37500D01*
G01Y3860800D01*
G02X5219700Y3823300I-37500J0D01*
G01X5067300D01*
G02X5029800Y3860800I0J37500D01*
G37*
G36*
G01X5601300Y3098800D02*
Y3251200D01*
G02X5638800Y3288700I37500J0D01*
G01X5791200D01*
G02X5828700Y3251200I0J-37500D01*
G01Y3098800D01*
G02X5791200Y3061300I-37500J0D01*
G01X5638800D01*
G02X5601300Y3098800I0J37500D01*
G37*
G36*
G01X3588600Y4180800D02*
X3461100D01*
G02Y4331200I-93600J75200D01*
G01X3526400D01*
X3544300Y4349100D01*
Y4804200D01*
G02X3694700I75200J85300D01*
G01Y4286900D01*
X3588600Y4180800D01*
G37*
G36*
G01X6636400Y4496800D02*
X6528800Y4604400D01*
Y4804200D01*
G02Y4974800I75200J85300D01*
G01Y5047600D01*
X7012500Y5531400D01*
G03X7011800Y5546400I-7192J7181D01*
G02X6998300Y5575300I24033J28830D01*
G01Y5727700D01*
G02X7035800Y5765200I37500J0D01*
G01X7188200D01*
G02X7225700Y5727700I0J-37500D01*
G01Y5575300D01*
G02X7191800Y5538000I-37471J0D01*
G03X7187200Y5532900I507J-5082D01*
G01Y5493400D01*
X6679200Y4985400D01*
Y4974800D01*
X6680900Y4973300D01*
G02X6679200Y4804200I-76887J-83786D01*
G01Y4666600D01*
X6698600Y4647200D01*
X7333700D01*
X7504700Y4476200D01*
Y4284600D01*
G02X7354300I-75200J-93600D01*
G01Y4414000D01*
X7271500Y4496800D01*
X6636400D01*
G37*
G36*
G01X5691100Y4276800D02*
G03X5696100Y4293900I-2213J9928D01*
G01X5512800Y4477300D01*
Y4804200D01*
G02X5663200I75200J85300D01*
G01Y4539500D01*
X5936500Y4266200D01*
X6002400D01*
G02X6049500Y4301700I93612J-75205D01*
G03X6052800Y4318400I-3897J9446D01*
G01X5766800Y4604400D01*
Y4804200D01*
G02X5917200I75200J85300D01*
G01Y4666600D01*
X6317600Y4266200D01*
X6446900D01*
G02X6469500Y4287900I93769J-75039D01*
G03X6463500Y4306300I-6029J8212D01*
G01X6445900D01*
X6274800Y4477400D01*
Y4804200D01*
G02X6425200I75200J85300D01*
G01Y4539600D01*
X6508100Y4456700D01*
X6966100D01*
X7060200Y4362600D01*
Y4284600D01*
G02X6908000Y4283100I-75185J-93618D01*
G01X6909800Y4284700D01*
Y4300400D01*
X6903900Y4306300D01*
X6617500D01*
G03X6611500Y4287900I29J-10188D01*
G02X6446900Y4115800I-70973J-96883D01*
G01X6255400D01*
X6223400Y4147800D01*
G03X6206700Y4144500I-7254J-7197D01*
G02X6002400Y4115800I-110701J46521D01*
G01X5874300D01*
X5843300Y4146700D01*
G03X5826200Y4141700I-7172J-7213D01*
G02X5629700Y4090400I-111182J23884D01*
G01X5074300D01*
X4560300Y4604400D01*
Y4732400D01*
G02Y4919600I75200J93600D01*
G01Y5111100D01*
X5004800Y5555600D01*
Y5748400D01*
G02X5155200I75200J93600D01*
G01Y5493400D01*
X4710700Y5048900D01*
Y4919600D01*
G02Y4732400I-75200J-93600D01*
G01Y4666600D01*
X5136500Y4240800D01*
X5629700D01*
G02X5691100Y4276800I85329J-75172D01*
G37*
G36*
G01X4481700Y4168900D02*
Y3990700D01*
G02X4281300I-100200J-53700D01*
G01Y4085900D01*
X3773300Y4593900D01*
Y4835800D01*
G02X3973700I100200J53700D01*
G01Y4676900D01*
X4481700Y4168900D01*
G37*
G36*
G01X2302900Y5520800D02*
G03X2294900Y5538200I-7198J7230D01*
G02X2399300Y5642600I-8900J113300D01*
G03X2416700Y5634600I10170J-802D01*
G01X2845800Y6063600D01*
Y6129400D01*
G02X2996200I75200J93600D01*
G01Y6001400D01*
X2015100Y5020200D01*
G03X2023100Y5002800I7198J-7230D01*
G02X2107200Y4804200I8896J-113339D01*
G01Y4422600D01*
X2154400Y4375400D01*
X2156800Y4375600D01*
G02X2242700Y4162400I10668J-119607D01*
G01Y3642100D01*
X2569600Y3315200D01*
X2673900D01*
G02X2843100Y3333300I93614J-75210D01*
G03X2859700Y3341300I6398J7947D01*
G01Y4154700D01*
G03X2843100Y4162700I-10202J53D01*
G02Y4349300I-75600J93300D01*
G03X2859700Y4357300I6398J7947D01*
G01Y5287400D01*
X3070000Y5497700D01*
X3260500D01*
X3265300Y5502500D01*
Y5597800D01*
G02X3465700I100200J53700D01*
G01Y5419500D01*
X3343500Y5297300D01*
X3153000D01*
X3060100Y5204400D01*
Y5003200D01*
X3187700D01*
G02X3225200Y4965700I0J-37500D01*
G01Y4813300D01*
G02X3187700Y4775800I-37500J0D01*
G01X3060100D01*
Y3177600D01*
X3280000Y2957700D01*
X4721000D01*
X4789300Y3026000D01*
Y3121300D01*
G02X4989700I100200J53700D01*
G01Y2943000D01*
X4804000Y2757300D01*
X3197000D01*
X2859700Y3094600D01*
Y3138700D01*
G03X2843100Y3146700I-10202J53D01*
G02X2673900Y3164800I-75586J93310D01*
G01X2507400D01*
X2092300Y3579900D01*
Y4162400D01*
G02X2047900Y4266700I75205J93615D01*
G01X2048100Y4269100D01*
X1956800Y4360400D01*
Y4804200D01*
G02X1918700Y4898400I75234J85234D01*
G03X1901300Y4906400I-10170J802D01*
G01X1891500Y4896600D01*
X1891600Y4894400D01*
G02X1782900Y5003100I-113600J-4900D01*
G01X1785100Y5003000D01*
X2302900Y5520800D01*
G37*
G36*
G01X5959400Y2636700D02*
X6020800Y2698100D01*
Y3081400D01*
G02X6171200I75200J93600D01*
G01Y2635900D01*
X6021600Y2486300D01*
X5811100D01*
G02Y2636700I-93600J75200D01*
G01X5959400D01*
G37*
G36*
G01X7060200Y3081400D02*
Y2633600D01*
G02X6909800I-75200J-93600D01*
G01Y3081400D01*
G02Y3268600I75200J93600D01*
G01Y3397900D01*
X6699900Y3607800D01*
X4985400D01*
X4814300Y3778900D01*
Y3851700D01*
G02X4966400Y3853200I75216J85289D01*
G01X4964700Y3851700D01*
Y3841100D01*
X5047600Y3758200D01*
X6762100D01*
X7060200Y3460100D01*
Y3268600D01*
G02Y3081400I-75200J-93600D01*
G37*
G36*
G01X6594400Y1620700D02*
X7354300Y2380600D01*
Y2446400D01*
G02Y2633600I75200J93600D01*
G01Y3081400D01*
G02X7504700I75200J93600D01*
G01Y2633600D01*
G02Y2446400I-75200J-93600D01*
G01Y2318400D01*
X6656600Y1470300D01*
X6531100D01*
G02Y1620700I-93600J75200D01*
G01X6594400D01*
G37*
G36*
G01X6450600Y2680900D02*
X6465300Y2695600D01*
Y3081400D01*
G02X6615700I75200J93600D01*
G01Y2633400D01*
X6556900Y2574600D01*
X6557100Y2572200D01*
G02X6512700Y2467900I-119605J-10685D01*
G01Y2101400D01*
X5881600Y1470300D01*
X5811100D01*
G02X5809600Y1622500I-93618J75185D01*
G01X5811200Y1620700D01*
X5819400D01*
X6362300Y2163600D01*
Y2467900D01*
G02X6448200Y2681100I75232J93593D01*
G01X6450600Y2680900D01*
G37*
G54D22*
X1524000Y3238500D03*
X2167500Y3240000D03*
X3367500D03*
X3876000Y3183000D03*
Y4199000D03*
X4254500Y4826000D03*
Y5842000D03*
X4635500D03*
X5080000Y4826000D03*
X6985000Y1524000D03*
X7429500D03*
X8880000Y2040000D03*
Y3056000D03*
G54D23*
X2286000Y4889500D03*
X3365500D03*
X3111500Y5651500D03*
X3619500D03*
X3873500D03*
X4381500Y3175000D03*
X4635500D03*
Y3937000D03*
X5143500Y3175000D03*
X5588000Y5651500D03*
X6096000Y4889500D03*
X5842000Y5651500D03*
X6096000D03*
X6350000D03*
X6858000Y4889500D03*
X7112000D03*
X6604000Y5651500D03*
X6858000D03*
X8484500Y4343600D03*
%LPD*%
G75*
G36*
G01X254000Y254000D02*
Y762000D01*
X762000D01*
Y254000D01*
X254000D01*
G37*
G36*
G01X317500Y6159500D02*
Y6667500D01*
X825500D01*
Y6159500D01*
X317500D01*
G37*
G36*
G01X9207500Y317500D02*
Y825500D01*
X9715500D01*
Y317500D01*
X9207500D01*
G37*
G36*
G01X9226000Y6226000D02*
Y6734000D01*
X9734000D01*
Y6226000D01*
X9226000D01*
G37*
G54D10*
X508000Y508000D03*
D03*
X571500Y6413500D03*
D03*
X9461500Y571500D03*
D03*
X9480000Y6480000D03*
D03*
G54D20*
G01X6096000Y5651500D02*
X5715000Y6032500D01*
X425400D01*
X348400Y5955500D01*
Y3397600D01*
X500000Y3246000D01*
G01X1778000Y5651500D02*
X1587500Y5842000D01*
X1206500D01*
X952500Y5588000D01*
Y2921000D01*
X769500Y2738000D01*
X500000D01*
G01X2286000Y4889500D02*
Y4737900D01*
X1993100Y4445000D01*
X825500D01*
X500000Y4119500D01*
Y3500000D01*
G01X3365500Y5651500D02*
Y5841900D01*
X3300300Y5907100D01*
X1843200D01*
X1778000Y5841900D01*
Y5651500D01*
G01X3873500Y4889500D02*
Y5041100D01*
X3827300Y5087300D01*
X2356800D01*
X2286000Y5016500D01*
Y4889500D01*
G01X4889500Y3175000D02*
Y2984500D01*
X4762500Y2857500D01*
X3238500D01*
X2959900Y3136100D01*
Y5245900D01*
X3111500Y5397500D01*
X3302000D01*
X3365500Y5461000D01*
Y5651500D01*
G01X3873500Y4889500D02*
Y4635400D01*
X4381500Y4127400D01*
Y3937000D01*
G54D11*
X508000Y508000D03*
D03*
X571500Y6413500D03*
D03*
X9461500Y571500D03*
D03*
X9480000Y6480000D03*
D03*
G54D21*
G01X500000Y2873200D02*
Y2992000D01*
G01D02*
Y3110800D01*
G01Y2992000D02*
X618800D01*
G01X600000Y5280000D02*
Y4670500D01*
X698500Y4572000D01*
X1587500D01*
X1778000Y4762500D01*
Y4889500D01*
G01X600000Y5534000D02*
Y5659200D01*
G01Y5534000D02*
X725200D01*
G01X1524000Y3238500D02*
Y3098100D01*
X1574100Y3048000D01*
X2921000D01*
X3111500Y3238500D01*
Y4508500D01*
X3238500Y4635500D01*
X3415500D01*
G01X2767500Y4256000D02*
Y4101000D01*
X2667000Y4000500D01*
X1587500D01*
X1524000Y4064000D01*
Y4254500D01*
G01X2921000Y6223000D02*
Y6032500D01*
X1778000Y4889500D01*
G01X1524000Y4254500D02*
X1383500D01*
X1333500Y4304500D01*
Y5397500D01*
X1397000Y5461000D01*
X1982000D01*
X2032000Y5511000D01*
Y5651500D01*
G01X2627900Y720000D02*
X2494500D01*
Y1120000D01*
X2627900D01*
G01X2574500Y926700D02*
X2494500D01*
G01X2709700Y1120000D02*
Y720000D01*
X2843100D01*
G01X3058300D02*
X2924900D01*
Y1120000D01*
X3058300D01*
G01X3004900Y926700D02*
X2924900D01*
G01X3280100Y1086700D02*
X3260100Y1106700D01*
X3236800Y1120000D01*
X3210100D01*
X3180100Y1100000D01*
X3156800Y1066700D01*
X3140100Y1026700D01*
X3126800Y960000D01*
X3123500Y900000D01*
X3130100Y840000D01*
X3140100Y800000D01*
X3160100Y760000D01*
X3183500Y733300D01*
X3206800Y720000D01*
X3230100D01*
X3253500Y733300D01*
X3273500Y753300D01*
X3290100Y780000D01*
G01X3422000Y1120000D02*
Y720000D01*
G01X3345300Y1120000D02*
X3498700D01*
G01X3570500Y720000D02*
Y1120000D01*
X3653900D01*
X3680500Y1100000D01*
X3697200Y1073300D01*
X3703900Y1020000D01*
X3697200Y966700D01*
X3677200Y933300D01*
X3653900Y913300D01*
X3570500D01*
G01X3653900D02*
X3703900Y720000D01*
G01X3852400D02*
X3825700Y726700D01*
X3802400Y753300D01*
X3782400Y793300D01*
X3769100Y840000D01*
X3762400Y893300D01*
Y946700D01*
X3769100Y1000000D01*
X3782400Y1046700D01*
X3802400Y1086700D01*
X3825700Y1113300D01*
X3852400Y1120000D01*
X3879100Y1113300D01*
X3902400Y1086700D01*
X3922400Y1046700D01*
X3935700Y1000000D01*
X3942400Y946700D01*
Y893300D01*
X3935700Y840000D01*
X3922400Y793300D01*
X3902400Y753300D01*
X3879100Y726700D01*
X3852400Y720000D01*
G01X3990900D02*
Y1120000D01*
X4144300Y720000D01*
Y1120000D01*
G01X4242800D02*
X4322800D01*
G01X4282800D02*
Y720000D01*
G01X4242800D02*
X4322800D01*
G01X4571300Y1086700D02*
X4551300Y1106700D01*
X4528000Y1120000D01*
X4501300D01*
X4471300Y1100000D01*
X4448000Y1066700D01*
X4431300Y1026700D01*
X4418000Y960000D01*
X4414700Y900000D01*
X4421300Y840000D01*
X4431300Y800000D01*
X4451300Y760000D01*
X4474700Y733300D01*
X4498000Y720000D01*
X4521300D01*
X4544700Y733300D01*
X4564700Y753300D01*
X4581300Y780000D01*
G01X5001700Y1086700D02*
X4981700Y1106700D01*
X4958400Y1120000D01*
X4931700D01*
X4901700Y1100000D01*
X4878400Y1066700D01*
X4861700Y1026700D01*
X4848400Y960000D01*
X4845100Y900000D01*
X4851700Y840000D01*
X4861700Y800000D01*
X4881700Y760000D01*
X4905100Y733300D01*
X4928400Y720000D01*
X4951700D01*
X4975100Y733300D01*
X4995100Y753300D01*
X5011700Y780000D01*
G01X5060300Y720000D02*
X5143600Y1120000D01*
X5226900Y720000D01*
G01X5196900Y860000D02*
X5090300D01*
G01X5285500Y720000D02*
Y1120000D01*
X5352100D01*
X5378800Y1100000D01*
X5398800Y1073300D01*
X5415500Y1033300D01*
X5428800Y986700D01*
X5432100Y920000D01*
X5428800Y853300D01*
X5415500Y806700D01*
X5398800Y766700D01*
X5378800Y740000D01*
X5352100Y720000D01*
X5285500D01*
G01X2167500Y3114800D02*
Y3240000D01*
G01D02*
Y3365200D01*
G01X2042300Y3240000D02*
X2167500D01*
G01D02*
X2292700D01*
G01X2167500Y4256000D02*
Y3611000D01*
X2538500Y3240000D01*
X2767500D01*
G01X2032000Y4889500D02*
Y4391500D01*
X2167500Y4256000D01*
G01X1905000Y6223000D02*
Y5778500D01*
X2032000Y5651500D01*
G01X3367500Y3114800D02*
Y3240000D01*
G01D02*
Y3365200D01*
G01X3242300Y3240000D02*
X3367500D01*
G01D02*
X3492700D01*
G01X3365500Y4889500D02*
Y4685500D01*
X3415500Y4635500D01*
G01X3619500Y4889500D02*
Y4318000D01*
X3557500Y4256000D01*
X3367500D01*
G01X3423100Y6240000D02*
Y6640000D01*
X3489700D01*
X3516400Y6620000D01*
X3536400Y6593300D01*
X3553100Y6553300D01*
X3566400Y6506700D01*
X3569700Y6440000D01*
X3566400Y6373300D01*
X3553100Y6326700D01*
X3536400Y6286700D01*
X3516400Y6260000D01*
X3489700Y6240000D01*
X3423100D01*
G01X3628300D02*
X3711600Y6640000D01*
X3794900Y6240000D01*
G01X3764900Y6380000D02*
X3658300D01*
G01X4215300Y6606700D02*
X4195300Y6626700D01*
X4172000Y6640000D01*
X4145300D01*
X4115300Y6620000D01*
X4092000Y6586700D01*
X4075300Y6546700D01*
X4062000Y6480000D01*
X4058700Y6420000D01*
X4065300Y6360000D01*
X4075300Y6320000D01*
X4095300Y6280000D01*
X4118700Y6253300D01*
X4142000Y6240000D01*
X4165300D01*
X4188700Y6253300D01*
X4208700Y6273300D01*
X4225300Y6300000D01*
G01X4357200Y6240000D02*
X4330500Y6246700D01*
X4307200Y6273300D01*
X4287200Y6313300D01*
X4273900Y6360000D01*
X4267200Y6413300D01*
Y6466700D01*
X4273900Y6520000D01*
X4287200Y6566700D01*
X4307200Y6606700D01*
X4330500Y6633300D01*
X4357200Y6640000D01*
X4383900Y6633300D01*
X4407200Y6606700D01*
X4427200Y6566700D01*
X4440500Y6520000D01*
X4447200Y6466700D01*
Y6413300D01*
X4440500Y6360000D01*
X4427200Y6313300D01*
X4407200Y6273300D01*
X4383900Y6246700D01*
X4357200Y6240000D01*
G01X4495700D02*
Y6640000D01*
X4649100Y6240000D01*
Y6640000D01*
G01X4704300D02*
X4787600Y6240000D01*
X4870900Y6640000D01*
G01X5069500Y6240000D02*
X4936100D01*
Y6640000D01*
X5069500D01*
G01X5016100Y6446700D02*
X4936100D01*
G01X5151300Y6240000D02*
Y6640000D01*
X5234700D01*
X5261300Y6620000D01*
X5278000Y6593300D01*
X5284700Y6540000D01*
X5278000Y6486700D01*
X5258000Y6453300D01*
X5234700Y6433300D01*
X5151300D01*
G01X5234700D02*
X5284700Y6240000D01*
G01X5433200Y6640000D02*
Y6240000D01*
G01X5356500Y6640000D02*
X5509900D01*
G01X5648400Y6240000D02*
X5621700Y6246700D01*
X5598400Y6273300D01*
X5578400Y6313300D01*
X5565100Y6360000D01*
X5558400Y6413300D01*
Y6466700D01*
X5565100Y6520000D01*
X5578400Y6566700D01*
X5598400Y6606700D01*
X5621700Y6633300D01*
X5648400Y6640000D01*
X5675100Y6633300D01*
X5698400Y6606700D01*
X5718400Y6566700D01*
X5731700Y6520000D01*
X5738400Y6466700D01*
Y6413300D01*
X5731700Y6360000D01*
X5718400Y6313300D01*
X5698400Y6273300D01*
X5675100Y6246700D01*
X5648400Y6240000D01*
G01X5796900D02*
Y6640000D01*
X5880300D01*
X5906900Y6620000D01*
X5923600Y6593300D01*
X5930300Y6540000D01*
X5923600Y6486700D01*
X5903600Y6453300D01*
X5880300Y6433300D01*
X5796900D01*
G01X5880300D02*
X5930300Y6240000D01*
G01X6096000Y3175000D02*
Y3042000D01*
X6038500Y2984500D01*
X3937000D01*
X3876000Y3045500D01*
Y3183000D01*
G01X3415500Y4635500D02*
X4204500D01*
X4254500Y4685500D01*
Y4826000D01*
G01X3876000Y4199000D02*
X4373500D01*
X4635500Y3937000D01*
G01X4254500Y5842000D02*
X3683000D01*
X3619500Y5778500D01*
Y5651500D01*
G01X8880000Y3056000D02*
Y3312000D01*
X8712400Y3479600D01*
X4813100D01*
X4635500Y3302000D01*
Y3175000D01*
G01Y3937000D02*
X4889500D01*
G01X6985000Y3175000D02*
Y3429000D01*
X6731000Y3683000D01*
X5016500D01*
X4889500Y3810000D01*
Y3937000D01*
G01X5080000Y5842000D02*
Y5524500D01*
X4635500Y5080000D01*
Y4826000D01*
G01X5715000Y4165600D02*
X5105400D01*
X4635500Y4635500D01*
Y4826000D01*
G01X4254500Y5842000D02*
X4635500D01*
G01X5596200Y3175000D02*
X5715000D01*
G01X6096000Y4191000D02*
X5905400D01*
X5588000Y4508400D01*
Y4889500D01*
G01X5080000Y4826000D02*
Y4635500D01*
X5143500Y4572000D01*
X7112000D01*
G01X5588000Y5532700D02*
Y5651500D01*
G01D02*
Y5770300D01*
G01X5469200Y5651500D02*
X5588000D01*
G01D02*
X5706800D01*
G01X6437500Y2561500D02*
Y2132500D01*
X5850500Y1545500D01*
X5717500D01*
G01X7429500Y2540000D02*
Y2349500D01*
X6625500Y1545500D01*
X6437500D01*
G01X6096000Y3175000D02*
Y2667000D01*
X5990500Y2561500D01*
X5717500D01*
G01X6540500Y3175000D02*
Y2664500D01*
X6437500Y2561500D01*
G01X5715000Y3056200D02*
Y3175000D01*
G01D02*
Y3293800D01*
G01Y3175000D02*
X5833800D01*
G01X6096000Y4770700D02*
Y4889500D01*
G01D02*
Y5008300D01*
G01X5977200Y4889500D02*
X6096000D01*
G01D02*
X6214800D01*
G01X6350000D02*
Y4508500D01*
X6477000Y4381500D01*
X6935000D01*
X6985000Y4331500D01*
Y4191000D01*
G01X5842000Y4889500D02*
Y4635500D01*
X6286500Y4191000D01*
X6540500D01*
G01X5842000Y5532700D02*
Y5651500D01*
G01D02*
Y5770300D01*
G01X5723200Y5651500D02*
X5842000D01*
G01D02*
X5960800D01*
G01X6985000Y1398800D02*
Y1524000D01*
G01D02*
Y1649200D01*
G01X6859800Y1524000D02*
X6985000D01*
G01D02*
X7110200D01*
G01X6985000Y3175000D02*
Y2540000D01*
G01X8880000Y2040000D02*
X7231000D01*
X6985000Y2286000D01*
Y2540000D01*
G01X7112000Y5651500D02*
Y5524500D01*
X6604000Y5016500D01*
Y4889500D01*
G01X7429500Y4191000D02*
Y4445100D01*
X7302600Y4572000D01*
X6667500D01*
X6604000Y4635500D01*
Y4889500D01*
G01X7112000Y4572000D02*
X8434500D01*
X8484500Y4522000D01*
Y4343600D01*
G01X7112000Y4889500D02*
Y4572000D01*
G01X6858000Y5532700D02*
Y5651500D01*
G01D02*
Y5770300D01*
G01X6739200Y5651500D02*
X6858000D01*
G01D02*
X6976800D01*
G01X6604000Y5532700D02*
Y5651500D01*
G01D02*
Y5770300D01*
G01X6485200Y5651500D02*
X6604000D01*
G01D02*
X6722800D01*
G01X7429500Y1398800D02*
Y1524000D01*
G01D02*
Y1649200D01*
G01X7304300Y1524000D02*
X7429500D01*
G01D02*
X7554700D01*
G01X7429500Y3175000D02*
Y2540000D01*
G01X8484500Y3234200D02*
Y3353000D01*
G01D02*
Y3471800D01*
G01X8365700Y3353000D02*
X8484500D01*
G01D02*
X8603300D01*
G01X9500000Y3135200D02*
Y3254000D01*
G01D02*
Y3372800D01*
G01X9381200Y3254000D02*
X9500000D01*
G01X8880000Y3056000D02*
X9025600Y2910400D01*
X9410400D01*
X9500000Y3000000D01*
G54D12*
X508000Y508000D03*
X1141500Y-4227500D03*
X571500Y6413500D03*
X9461500Y571500D03*
X9480000Y6480000D03*
G54D13*
X1141500Y-3592500D03*
X600000Y5534000D03*
Y5280000D03*
X1524000Y3238500D03*
Y4254500D03*
X1905000Y6223000D03*
X2167500Y3240000D03*
Y4256000D03*
X3367500Y3240000D03*
X2767500D03*
X3367500Y4256000D03*
X2767500D03*
X2921000Y6223000D03*
X3876000Y3183000D03*
Y4199000D03*
X4254500Y4826000D03*
Y5842000D03*
X4635500Y4826000D03*
Y5842000D03*
X5717500Y1545500D03*
Y2561500D03*
X5080000Y4826000D03*
Y5842000D03*
X6437500Y1545500D03*
Y2561500D03*
X6540500Y3175000D03*
X6096000D03*
X6540500Y4191000D03*
X6096000D03*
X6985000Y1524000D03*
Y2540000D03*
Y3175000D03*
Y4191000D03*
X7429500Y1524000D03*
Y2540000D03*
Y3175000D03*
Y4191000D03*
X8880000Y2040000D03*
Y3056000D03*
G54D14*
X1141500Y-2957500D03*
X500000Y2738000D03*
Y2992000D03*
Y3246000D03*
Y3500000D03*
X1778000Y4889500D03*
X1524000D03*
X1778000Y5651500D03*
X1524000D03*
X2286000Y4889500D03*
X2032000D03*
X2286000Y5651500D03*
X2032000D03*
X3365500Y4889500D03*
X3111500D03*
X3365500Y5651500D03*
X3111500D03*
X3873500Y4889500D03*
X3619500D03*
X3873500Y5651500D03*
X3619500D03*
X4381500Y3175000D03*
X4635500D03*
X4889500D03*
X4381500Y3937000D03*
X4635500D03*
X4889500D03*
X5143500Y3175000D03*
X5715000D03*
X5143500Y3937000D03*
X5715000Y4165600D03*
X5588000Y4889500D03*
Y5651500D03*
X5842000Y4889500D03*
X6096000D03*
X6350000D03*
X5842000Y5651500D03*
X6096000D03*
X6350000D03*
X6604000Y4889500D03*
X6858000D03*
X7112000D03*
X6604000Y5651500D03*
X6858000D03*
X7112000D03*
X8484500Y3353000D03*
Y4343600D03*
X9500000Y3254000D03*
Y3000000D03*
G54D15*
X500000Y2738000D03*
D03*
Y2992000D03*
D03*
Y3246000D03*
D03*
Y3500000D03*
D03*
X1778000Y4889500D03*
D03*
X1524000D03*
D03*
X1778000Y5651500D03*
D03*
X1524000D03*
D03*
X2286000Y4889500D03*
D03*
X2032000D03*
D03*
X2286000Y5651500D03*
D03*
X2032000D03*
D03*
X3365500Y4889500D03*
D03*
X3111500D03*
D03*
X3365500Y5651500D03*
D03*
X3111500D03*
D03*
X3873500Y4889500D03*
D03*
X3619500D03*
D03*
X3873500Y5651500D03*
D03*
X3619500D03*
D03*
X4381500Y3175000D03*
D03*
X4635500D03*
D03*
X4889500D03*
D03*
X4381500Y3937000D03*
D03*
X4635500D03*
D03*
X4889500D03*
D03*
X5143500Y3175000D03*
D03*
X5715000D03*
D03*
X5143500Y3937000D03*
D03*
X5715000Y4165600D03*
D03*
X5588000Y4889500D03*
D03*
Y5651500D03*
D03*
X5842000Y4889500D03*
D03*
X6096000D03*
D03*
X6350000D03*
D03*
X5842000Y5651500D03*
D03*
X6096000D03*
D03*
X6350000D03*
D03*
X6604000Y4889500D03*
D03*
X6858000D03*
D03*
X7112000D03*
D03*
X6604000Y5651500D03*
D03*
X6858000D03*
D03*
X7112000D03*
D03*
X8484500Y3353000D03*
D03*
Y4343600D03*
D03*
X9500000Y3254000D03*
D03*
Y3000000D03*
D03*
G54D16*
X500000Y2738000D03*
D03*
Y2992000D03*
D03*
Y3246000D03*
D03*
Y3500000D03*
D03*
X1778000Y4889500D03*
D03*
Y5651500D03*
D03*
X1524000D03*
D03*
X2286000Y4889500D03*
D03*
X2032000D03*
D03*
X2286000Y5651500D03*
D03*
X2032000D03*
D03*
X3365500Y4889500D03*
D03*
Y5651500D03*
D03*
X3111500D03*
D03*
X3873500Y4889500D03*
D03*
X3619500D03*
D03*
X3873500Y5651500D03*
D03*
X3619500D03*
D03*
X4381500Y3175000D03*
D03*
X4635500D03*
D03*
X4889500D03*
D03*
X4381500Y3937000D03*
D03*
X4635500D03*
D03*
X4889500D03*
D03*
X5143500Y3175000D03*
D03*
X5715000Y4165600D03*
D03*
X5588000Y4889500D03*
D03*
Y5651500D03*
D03*
X5842000Y4889500D03*
D03*
X6096000D03*
D03*
X6350000D03*
D03*
X5842000Y5651500D03*
D03*
X6096000D03*
D03*
X6350000D03*
D03*
X6604000Y4889500D03*
D03*
X6858000D03*
D03*
X7112000D03*
D03*
X6604000Y5651500D03*
D03*
X6858000D03*
D03*
X8484500Y4343600D03*
D03*
X9500000Y3254000D03*
D03*
Y3000000D03*
D03*
G54D17*
X600000Y5534000D03*
D03*
Y5280000D03*
D03*
X1524000Y3238500D03*
D03*
Y4254500D03*
D03*
X1905000Y6223000D03*
D03*
X2167500Y3240000D03*
D03*
Y4256000D03*
D03*
X3367500Y3240000D03*
D03*
X2767500D03*
D03*
X3367500Y4256000D03*
D03*
X2767500D03*
D03*
X2921000Y6223000D03*
D03*
X3876000Y3183000D03*
D03*
Y4199000D03*
D03*
X4254500Y4826000D03*
D03*
Y5842000D03*
D03*
X4635500Y4826000D03*
D03*
Y5842000D03*
D03*
X5717500Y1545500D03*
D03*
Y2561500D03*
D03*
X5080000Y4826000D03*
D03*
Y5842000D03*
D03*
X6437500Y1545500D03*
D03*
Y2561500D03*
D03*
X6540500Y3175000D03*
D03*
X6096000D03*
D03*
X6540500Y4191000D03*
D03*
X6096000D03*
D03*
X6985000Y1524000D03*
D03*
Y2540000D03*
D03*
Y3175000D03*
D03*
Y4191000D03*
D03*
X7429500Y1524000D03*
D03*
Y2540000D03*
D03*
Y3175000D03*
D03*
Y4191000D03*
D03*
X8880000Y2040000D03*
D03*
Y3056000D03*
D03*
G54D18*
X600000Y5534000D03*
D03*
Y5280000D03*
D03*
X1524000Y3238500D03*
D03*
Y4254500D03*
D03*
X1905000Y6223000D03*
D03*
X2167500Y3240000D03*
D03*
Y4256000D03*
D03*
X3367500Y3240000D03*
D03*
X2767500D03*
D03*
X3367500Y4256000D03*
D03*
X2767500D03*
D03*
X2921000Y6223000D03*
D03*
X3876000Y3183000D03*
D03*
Y4199000D03*
D03*
X4254500Y4826000D03*
D03*
Y5842000D03*
D03*
X4635500Y4826000D03*
D03*
Y5842000D03*
D03*
X5717500Y1545500D03*
D03*
Y2561500D03*
D03*
X5080000Y4826000D03*
D03*
Y5842000D03*
D03*
X6437500Y1545500D03*
D03*
Y2561500D03*
D03*
X6540500Y3175000D03*
D03*
X6096000D03*
D03*
X6540500Y4191000D03*
D03*
X6096000D03*
D03*
X6985000Y1524000D03*
D03*
Y2540000D03*
D03*
Y3175000D03*
D03*
Y4191000D03*
D03*
X7429500Y1524000D03*
D03*
Y2540000D03*
D03*
Y3175000D03*
D03*
Y4191000D03*
D03*
X8880000Y2040000D03*
D03*
Y3056000D03*
D03*
G54D19*
X1524000Y4889500D03*
D03*
X3111500D03*
D03*
X5715000Y3175000D03*
D03*
X5143500Y3937000D03*
D03*
X7112000Y5651500D03*
D03*
X8484500Y3353000D03*
D03*
M02*
