G04 ================== begin FILE IDENTIFICATION RECORD ==================*
G04 Layout Name:  C:/USERS/USER/DESKTOP/VSCODE_ORCAD/WORKSPACE/CAD3/allegro/CAD3.brd*
G04 Film Name:    SilkT*
G04 File Format:  Gerber RS274X*
G04 File Origin:  Cadence Allegro 17.2-P019*
G04 Origin Date:  Wed Jul 31 16:17:45 2019*
G04 *
G04 Layer:  REF DES/SILKSCREEN_TOP*
G04 Layer:  PACKAGE GEOMETRY/SILKSCREEN_TOP*
G04 Layer:  BOARD GEOMETRY/SILKSCREEN_TOP*
G04 *
G04 Offset:    (0.000 0.000)*
G04 Mirror:    No*
G04 Mode:      Positive*
G04 Rotation:  0*
G04 FullContactRelief:  No*
G04 UndefLineWidth:     0.200*
G04 ================== end FILE IDENTIFICATION RECORD ====================*
%FSLAX25Y25*MOMM*%
%IR0*IPPOS*OFA0.00000B0.00000*MIA0B0*SFA1.00000B1.00000*%
%ADD10C,.5*%
%ADD11C,.2*%
G75*
%LPD*%
G75*
G54D10*
G01X2627900Y720000D02*
X2494500D01*
Y1120000D01*
X2627900D01*
G01X2574500Y926700D02*
X2494500D01*
G01X2709700Y1120000D02*
Y720000D01*
X2843100D01*
G01X3058300D02*
X2924900D01*
Y1120000D01*
X3058300D01*
G01X3004900Y926700D02*
X2924900D01*
G01X3280100Y1086700D02*
X3260100Y1106700D01*
X3236800Y1120000D01*
X3210100D01*
X3180100Y1100000D01*
X3156800Y1066700D01*
X3140100Y1026700D01*
X3126800Y960000D01*
X3123500Y900000D01*
X3130100Y840000D01*
X3140100Y800000D01*
X3160100Y760000D01*
X3183500Y733300D01*
X3206800Y720000D01*
X3230100D01*
X3253500Y733300D01*
X3273500Y753300D01*
X3290100Y780000D01*
G01X3422000Y1120000D02*
Y720000D01*
G01X3345300Y1120000D02*
X3498700D01*
G01X3570500Y720000D02*
Y1120000D01*
X3653900D01*
X3680500Y1100000D01*
X3697200Y1073300D01*
X3703900Y1020000D01*
X3697200Y966700D01*
X3677200Y933300D01*
X3653900Y913300D01*
X3570500D01*
G01X3653900D02*
X3703900Y720000D01*
G01X3852400D02*
X3825700Y726700D01*
X3802400Y753300D01*
X3782400Y793300D01*
X3769100Y840000D01*
X3762400Y893300D01*
Y946700D01*
X3769100Y1000000D01*
X3782400Y1046700D01*
X3802400Y1086700D01*
X3825700Y1113300D01*
X3852400Y1120000D01*
X3879100Y1113300D01*
X3902400Y1086700D01*
X3922400Y1046700D01*
X3935700Y1000000D01*
X3942400Y946700D01*
Y893300D01*
X3935700Y840000D01*
X3922400Y793300D01*
X3902400Y753300D01*
X3879100Y726700D01*
X3852400Y720000D01*
G01X3990900D02*
Y1120000D01*
X4144300Y720000D01*
Y1120000D01*
G01X4242800D02*
X4322800D01*
G01X4282800D02*
Y720000D01*
G01X4242800D02*
X4322800D01*
G01X4571300Y1086700D02*
X4551300Y1106700D01*
X4528000Y1120000D01*
X4501300D01*
X4471300Y1100000D01*
X4448000Y1066700D01*
X4431300Y1026700D01*
X4418000Y960000D01*
X4414700Y900000D01*
X4421300Y840000D01*
X4431300Y800000D01*
X4451300Y760000D01*
X4474700Y733300D01*
X4498000Y720000D01*
X4521300D01*
X4544700Y733300D01*
X4564700Y753300D01*
X4581300Y780000D01*
G01X5001700Y1086700D02*
X4981700Y1106700D01*
X4958400Y1120000D01*
X4931700D01*
X4901700Y1100000D01*
X4878400Y1066700D01*
X4861700Y1026700D01*
X4848400Y960000D01*
X4845100Y900000D01*
X4851700Y840000D01*
X4861700Y800000D01*
X4881700Y760000D01*
X4905100Y733300D01*
X4928400Y720000D01*
X4951700D01*
X4975100Y733300D01*
X4995100Y753300D01*
X5011700Y780000D01*
G01X5060300Y720000D02*
X5143600Y1120000D01*
X5226900Y720000D01*
G01X5196900Y860000D02*
X5090300D01*
G01X5285500Y720000D02*
Y1120000D01*
X5352100D01*
X5378800Y1100000D01*
X5398800Y1073300D01*
X5415500Y1033300D01*
X5428800Y986700D01*
X5432100Y920000D01*
X5428800Y853300D01*
X5415500Y806700D01*
X5398800Y766700D01*
X5378800Y740000D01*
X5352100Y720000D01*
X5285500D01*
G01X3423100Y6240000D02*
Y6640000D01*
X3489700D01*
X3516400Y6620000D01*
X3536400Y6593300D01*
X3553100Y6553300D01*
X3566400Y6506700D01*
X3569700Y6440000D01*
X3566400Y6373300D01*
X3553100Y6326700D01*
X3536400Y6286700D01*
X3516400Y6260000D01*
X3489700Y6240000D01*
X3423100D01*
G01X3628300D02*
X3711600Y6640000D01*
X3794900Y6240000D01*
G01X3764900Y6380000D02*
X3658300D01*
G01X4215300Y6606700D02*
X4195300Y6626700D01*
X4172000Y6640000D01*
X4145300D01*
X4115300Y6620000D01*
X4092000Y6586700D01*
X4075300Y6546700D01*
X4062000Y6480000D01*
X4058700Y6420000D01*
X4065300Y6360000D01*
X4075300Y6320000D01*
X4095300Y6280000D01*
X4118700Y6253300D01*
X4142000Y6240000D01*
X4165300D01*
X4188700Y6253300D01*
X4208700Y6273300D01*
X4225300Y6300000D01*
G01X4357200Y6240000D02*
X4330500Y6246700D01*
X4307200Y6273300D01*
X4287200Y6313300D01*
X4273900Y6360000D01*
X4267200Y6413300D01*
Y6466700D01*
X4273900Y6520000D01*
X4287200Y6566700D01*
X4307200Y6606700D01*
X4330500Y6633300D01*
X4357200Y6640000D01*
X4383900Y6633300D01*
X4407200Y6606700D01*
X4427200Y6566700D01*
X4440500Y6520000D01*
X4447200Y6466700D01*
Y6413300D01*
X4440500Y6360000D01*
X4427200Y6313300D01*
X4407200Y6273300D01*
X4383900Y6246700D01*
X4357200Y6240000D01*
G01X4495700D02*
Y6640000D01*
X4649100Y6240000D01*
Y6640000D01*
G01X4704300D02*
X4787600Y6240000D01*
X4870900Y6640000D01*
G01X5069500Y6240000D02*
X4936100D01*
Y6640000D01*
X5069500D01*
G01X5016100Y6446700D02*
X4936100D01*
G01X5151300Y6240000D02*
Y6640000D01*
X5234700D01*
X5261300Y6620000D01*
X5278000Y6593300D01*
X5284700Y6540000D01*
X5278000Y6486700D01*
X5258000Y6453300D01*
X5234700Y6433300D01*
X5151300D01*
G01X5234700D02*
X5284700Y6240000D01*
G01X5433200Y6640000D02*
Y6240000D01*
G01X5356500Y6640000D02*
X5509900D01*
G01X5648400Y6240000D02*
X5621700Y6246700D01*
X5598400Y6273300D01*
X5578400Y6313300D01*
X5565100Y6360000D01*
X5558400Y6413300D01*
Y6466700D01*
X5565100Y6520000D01*
X5578400Y6566700D01*
X5598400Y6606700D01*
X5621700Y6633300D01*
X5648400Y6640000D01*
X5675100Y6633300D01*
X5698400Y6606700D01*
X5718400Y6566700D01*
X5731700Y6520000D01*
X5738400Y6466700D01*
Y6413300D01*
X5731700Y6360000D01*
X5718400Y6313300D01*
X5698400Y6273300D01*
X5675100Y6246700D01*
X5648400Y6240000D01*
G01X5796900D02*
Y6640000D01*
X5880300D01*
X5906900Y6620000D01*
X5923600Y6593300D01*
X5930300Y6540000D01*
X5923600Y6486700D01*
X5903600Y6453300D01*
X5880300Y6433300D01*
X5796900D01*
G01X5880300D02*
X5930300Y6240000D01*
G54D11*
G01X373000Y3627000D02*
X627000D01*
Y2611000D01*
X373000D01*
Y3627000D01*
G01X682900Y3614700D02*
X670200Y3606700D01*
X661700Y3597000D01*
X657500Y3585800D01*
X661700Y3572900D01*
X670200Y3563200D01*
X682900Y3553600D01*
X699800Y3550400D01*
X784500D01*
G01X763300Y3483600D02*
X776000Y3474000D01*
X782400Y3462700D01*
X784500Y3449800D01*
X780300Y3433700D01*
X769700Y3422500D01*
X757000Y3419300D01*
X744300Y3420900D01*
X733700Y3427300D01*
X712500Y3459500D01*
X697700Y3474000D01*
X676500Y3483600D01*
X657500Y3486800D01*
Y3419300D01*
G01X850000Y5716400D02*
X840400Y5722800D01*
X829100Y5727000D01*
X816300D01*
X801800Y5720600D01*
X790500Y5710100D01*
X782500Y5697400D01*
X776000Y5676200D01*
X774400Y5657100D01*
X777700Y5638100D01*
X782500Y5625400D01*
X792100Y5612700D01*
X803400Y5604200D01*
X814600Y5600000D01*
X825900D01*
X837200Y5604200D01*
X846800Y5610600D01*
X854900Y5619000D01*
G01X944100Y5600000D02*
Y5727000D01*
X924800Y5701600D01*
G01Y5600000D02*
X963400D01*
G01X473000Y5153000D02*
Y5661000D01*
X727000D01*
Y5153000D01*
X473000D01*
G01X1374600Y3632200D02*
Y3553500D01*
X1350200D01*
X1342400Y3557400D01*
X1337600Y3562700D01*
X1335600Y3573200D01*
X1337600Y3583700D01*
X1343400Y3590200D01*
X1350200Y3594200D01*
X1374600D01*
G01X1350200D02*
X1335600Y3632200D01*
G01X1297800Y3616500D02*
X1292000Y3625600D01*
X1284200Y3630900D01*
X1275400Y3632200D01*
X1267600Y3630900D01*
X1259900Y3624300D01*
X1255000Y3616500D01*
X1254000Y3608600D01*
X1256000Y3599400D01*
X1262800Y3592900D01*
X1269600Y3590200D01*
X1278300D01*
G01X1269600D02*
X1263700Y3586300D01*
X1258900Y3579700D01*
X1256900Y3571900D01*
X1258900Y3564000D01*
X1263700Y3557400D01*
X1272500Y3553500D01*
X1281300Y3554800D01*
X1290000Y3560100D01*
G01X1651000Y4102100D02*
Y3390900D01*
X1397000D01*
Y4102100D01*
X1651000D01*
G01X1397000Y4991100D02*
Y5143500D01*
X1460500Y5207000D01*
Y5334000D01*
X1397000Y5397500D01*
Y5549900D01*
X2413000D01*
Y4991100D01*
X1397000D01*
G01X1541800Y5795200D02*
X1632800D01*
X1651900Y5801600D01*
X1664600Y5814500D01*
X1668800Y5830500D01*
X1664600Y5846600D01*
X1651900Y5859500D01*
X1632800Y5865900D01*
X1541800D01*
G01X1668800Y5960000D02*
X1541800D01*
X1567200Y5940700D01*
G01X1668800D02*
Y5979300D01*
G01X2316900Y3862300D02*
Y3941000D01*
X2341300D01*
X2349100Y3937100D01*
X2353900Y3931800D01*
X2355900Y3921300D01*
X2353900Y3910800D01*
X2348100Y3904300D01*
X2341300Y3900300D01*
X2316900D01*
G01X2341300D02*
X2355900Y3862300D01*
G01X2415100D02*
X2421900Y3863600D01*
X2429700Y3867500D01*
X2434600Y3874100D01*
X2436500Y3883300D01*
X2434600Y3892500D01*
X2428700Y3900300D01*
X2420000Y3904300D01*
X2410200D01*
X2404400Y3906900D01*
X2399500Y3913500D01*
X2397600Y3922600D01*
X2400500Y3931800D01*
X2407300Y3938400D01*
X2415100Y3941000D01*
X2422900Y3938400D01*
X2429700Y3931800D01*
X2432600Y3922600D01*
X2430700Y3913500D01*
X2425800Y3906900D01*
X2420000Y3904300D01*
X2410200D01*
X2401500Y3900300D01*
X2395600Y3892500D01*
X2393700Y3883300D01*
X2395600Y3874100D01*
X2400500Y3867500D01*
X2408300Y3863600D01*
X2415100Y3862300D01*
G01X2040500Y3392400D02*
Y4103600D01*
X2294500D01*
Y3392400D01*
X2040500D01*
G01X2298700Y6372400D02*
X2220000D01*
Y6396800D01*
X2223900Y6404600D01*
X2229200Y6409400D01*
X2239700Y6411400D01*
X2250200Y6409400D01*
X2256700Y6403600D01*
X2260700Y6396800D01*
Y6372400D01*
G01Y6396800D02*
X2298700Y6411400D01*
G01Y6470600D02*
X2220000D01*
X2235700Y6458900D01*
G01X2298700D02*
Y6482300D01*
G01X2768600Y6096000D02*
X2057400D01*
Y6350000D01*
X2768600D01*
Y6096000D01*
G01X3240500Y3392400D02*
Y4103600D01*
X3494500D01*
Y3392400D01*
X3240500D01*
G01X2916900Y3862300D02*
Y3941000D01*
X2941300D01*
X2949100Y3937100D01*
X2953900Y3931800D01*
X2955900Y3921300D01*
X2953900Y3910800D01*
X2948100Y3904300D01*
X2941300Y3900300D01*
X2916900D01*
G01X2941300D02*
X2955900Y3862300D01*
G01X3013200D02*
X3015100Y3879400D01*
X3018000Y3893800D01*
X3021900Y3906900D01*
X3026800Y3921300D01*
X3034600Y3941000D01*
X2995600D01*
G01X2640500Y3392400D02*
Y4103600D01*
X2894500D01*
Y3392400D01*
X2640500D01*
G01X2984500Y4991100D02*
Y5143500D01*
X3048000Y5207000D01*
Y5334000D01*
X2984500Y5397500D01*
Y5549900D01*
X4000500D01*
Y4991100D01*
X2984500D01*
G01X3129300Y5795200D02*
X3220300D01*
X3239400Y5801600D01*
X3252100Y5814500D01*
X3256300Y5830500D01*
X3252100Y5846600D01*
X3239400Y5859500D01*
X3220300Y5865900D01*
X3129300D01*
G01X3150500Y5929500D02*
X3137800Y5939100D01*
X3131400Y5950400D01*
X3129300Y5963300D01*
X3133500Y5979400D01*
X3144100Y5990600D01*
X3156800Y5993800D01*
X3169500Y5992200D01*
X3180100Y5985800D01*
X3201300Y5953600D01*
X3216100Y5939100D01*
X3237300Y5929500D01*
X3256300Y5926300D01*
Y5993800D01*
G01X3749000Y3335400D02*
Y4046600D01*
X4003000D01*
Y3335400D01*
X3749000D01*
G01X3986100Y3805300D02*
Y3884000D01*
X4010500D01*
X4018300Y3880100D01*
X4023100Y3874800D01*
X4025100Y3864300D01*
X4023100Y3853800D01*
X4017300Y3847300D01*
X4010500Y3843300D01*
X3986100D01*
G01X4010500D02*
X4025100Y3805300D01*
G01X4084300D02*
Y3884000D01*
X4072600Y3868300D01*
G01Y3805300D02*
X4096000D01*
G01X4163000D02*
Y3884000D01*
X4151300Y3868300D01*
G01Y3805300D02*
X4174700D01*
G01X3516900Y3862300D02*
Y3941000D01*
X3541300D01*
X3549100Y3937100D01*
X3553900Y3931800D01*
X3555900Y3921300D01*
X3553900Y3910800D01*
X3548100Y3904300D01*
X3541300Y3900300D01*
X3516900D01*
G01X3541300D02*
X3555900Y3862300D01*
G01X3596600Y3895100D02*
X3603400Y3904300D01*
X3609300Y3909500D01*
X3617000Y3912100D01*
X3623900Y3909500D01*
X3628700Y3904300D01*
X3632600Y3896400D01*
X3633600Y3887200D01*
X3632600Y3879400D01*
X3628700Y3871500D01*
X3622900Y3864900D01*
X3616100Y3862300D01*
X3608300Y3864900D01*
X3601500Y3872800D01*
X3597600Y3884600D01*
X3596600Y3897700D01*
X3598600Y3914800D01*
X3601500Y3923900D01*
X3606300Y3933100D01*
X3613200Y3939700D01*
X3620000Y3941000D01*
X3626800Y3938400D01*
X3631600Y3931800D01*
G01X4127500Y4978400D02*
Y5689600D01*
X4381500D01*
Y4978400D01*
X4127500D01*
G01X5270500Y3835400D02*
Y3683000D01*
X5207000Y3619500D01*
Y3492500D01*
X5270500Y3429000D01*
Y3276600D01*
X4254500D01*
Y3835400D01*
X5270500D01*
G01X4403900Y5448300D02*
Y5527000D01*
X4428300D01*
X4436100Y5523100D01*
X4440900Y5517800D01*
X4442900Y5507300D01*
X4440900Y5496800D01*
X4435100Y5490300D01*
X4428300Y5486300D01*
X4403900D01*
G01X4428300D02*
X4442900Y5448300D01*
G01X4483600Y5513900D02*
X4489400Y5521800D01*
X4496300Y5525700D01*
X4504000Y5527000D01*
X4513800Y5524400D01*
X4520600Y5517800D01*
X4522500Y5509900D01*
X4521600Y5502100D01*
X4517700Y5495500D01*
X4498200Y5482400D01*
X4489400Y5473200D01*
X4483600Y5460100D01*
X4481700Y5448300D01*
X4522500D01*
G01X4486100Y5219700D02*
Y5141000D01*
X4461700D01*
X4453900Y5144900D01*
X4449100Y5150200D01*
X4447100Y5160700D01*
X4449100Y5171200D01*
X4454900Y5177700D01*
X4461700Y5181700D01*
X4486100D01*
G01X4461700D02*
X4447100Y5219700D01*
G01X4376200D02*
Y5141000D01*
X4412200Y5197400D01*
X4363600D01*
G01X4762500Y5689600D02*
Y4978400D01*
X4508500D01*
Y5689600D01*
X4762500D01*
G01X4930600Y5219700D02*
Y5141000D01*
X4906200D01*
X4898400Y5144900D01*
X4893600Y5150200D01*
X4891600Y5160700D01*
X4893600Y5171200D01*
X4899400Y5177700D01*
X4906200Y5181700D01*
X4930600D01*
G01X4906200D02*
X4891600Y5219700D01*
G01X4853800Y5207900D02*
X4848000Y5214500D01*
X4841200Y5218400D01*
X4832400Y5219700D01*
X4823600Y5217100D01*
X4816800Y5211800D01*
X4812000Y5202600D01*
X4811000Y5192200D01*
X4812900Y5181700D01*
X4817800Y5175100D01*
X4824600Y5169900D01*
X4831400Y5168500D01*
X4838200Y5169900D01*
X4847000Y5175100D01*
X4844100Y5141000D01*
X4817800D01*
G01X5590500Y1697900D02*
Y2409100D01*
X5844500D01*
Y1697900D01*
X5590500D01*
G01X5125700Y3031300D02*
X5034700D01*
X5015600Y3024900D01*
X5002900Y3012000D01*
X4998700Y2996000D01*
X5002900Y2979900D01*
X5015600Y2967000D01*
X5034700Y2960600D01*
X5125700D01*
G01X4998700Y2847100D02*
X5125700D01*
X5034700Y2906700D01*
Y2826200D01*
G01X5588000Y3429000D02*
Y3911600D01*
X5842000D01*
Y3429000D01*
X5588000D01*
G01Y3517900D02*
X5842000D01*
G01X5588000Y3505200D02*
X5842000D01*
G01X5207000Y5689600D02*
Y4978400D01*
X4953000D01*
Y5689600D01*
X5207000D01*
G01X7302500Y5549900D02*
X5397500D01*
Y4991100D01*
X7302500D01*
Y5143500D01*
X7239000Y5207000D01*
Y5334000D01*
X7302500Y5397500D01*
Y5549900D01*
G01X6310500Y1697900D02*
Y2409100D01*
X6564500D01*
Y1697900D01*
X6310500D01*
G01X5827600Y2167800D02*
Y2246500D01*
X5852000D01*
X5859800Y2242600D01*
X5864600Y2237300D01*
X5866600Y2226800D01*
X5864600Y2216300D01*
X5858800Y2209800D01*
X5852000Y2205800D01*
X5827600D01*
G01X5852000D02*
X5866600Y2167800D01*
G01X5925800D02*
Y2246500D01*
X5914100Y2230800D01*
G01Y2167800D02*
X5937500D01*
G01X5983100Y2183500D02*
X5988900Y2174400D01*
X5996700Y2169100D01*
X6005500Y2167800D01*
X6013300Y2169100D01*
X6021000Y2175700D01*
X6025900Y2183500D01*
X6026900Y2191400D01*
X6024900Y2200600D01*
X6018100Y2207100D01*
X6011300Y2209800D01*
X6002600D01*
G01X6011300D02*
X6017200Y2213700D01*
X6022000Y2220300D01*
X6024000Y2228100D01*
X6022000Y2236000D01*
X6017200Y2242600D01*
X6008400Y2246500D01*
X5999600Y2245200D01*
X5990900Y2239900D01*
G01X6413500Y3327400D02*
Y4038600D01*
X6667500D01*
Y3327400D01*
X6413500D01*
G01X5969000D02*
Y4038600D01*
X6223000D01*
Y3327400D01*
X5969000D01*
G01X6206100Y3797300D02*
Y3876000D01*
X6230500D01*
X6238300Y3872100D01*
X6243100Y3866800D01*
X6245100Y3856300D01*
X6243100Y3845800D01*
X6237300Y3839300D01*
X6230500Y3835300D01*
X6206100D01*
G01X6230500D02*
X6245100Y3797300D01*
G01X6304300D02*
Y3876000D01*
X6292600Y3860300D01*
G01Y3797300D02*
X6316000D01*
G01X6364500Y3862900D02*
X6370300Y3870800D01*
X6377200Y3874700D01*
X6384900Y3876000D01*
X6394700Y3873400D01*
X6401500Y3866800D01*
X6403400Y3858900D01*
X6402500Y3851100D01*
X6398600Y3844500D01*
X6379100Y3831400D01*
X6370300Y3822200D01*
X6364500Y3809100D01*
X6362600Y3797300D01*
X6403400D01*
G01X5887700Y3814800D02*
X5951200D01*
Y3801300D01*
X5948000Y3795800D01*
X5943800Y3791800D01*
X5937400Y3788400D01*
X5930000Y3785700D01*
X5919400Y3785000D01*
X5908900Y3785700D01*
X5901500Y3788400D01*
X5895100Y3791800D01*
X5890900Y3795800D01*
X5887700Y3801300D01*
Y3814800D01*
G01Y3744100D02*
X5951200D01*
X5938500Y3752200D01*
G01X5887700D02*
Y3736000D01*
G01X6874900Y1917700D02*
Y1839000D01*
X6850500D01*
X6842700Y1842900D01*
X6837900Y1848200D01*
X6835900Y1858700D01*
X6837900Y1869200D01*
X6843700Y1875700D01*
X6850500Y1879700D01*
X6874900D01*
G01X6850500D02*
X6835900Y1917700D01*
G01X6776700D02*
Y1839000D01*
X6788400Y1854700D01*
G01Y1917700D02*
X6765000D01*
G01X6716500Y1884900D02*
X6709700Y1875700D01*
X6703800Y1870500D01*
X6696100Y1867900D01*
X6689200Y1870500D01*
X6684400Y1875700D01*
X6680500Y1883600D01*
X6679500Y1892800D01*
X6680500Y1900600D01*
X6684400Y1908500D01*
X6690200Y1915100D01*
X6697000Y1917700D01*
X6704800Y1915100D01*
X6711600Y1907200D01*
X6715500Y1895400D01*
X6716500Y1882300D01*
X6714500Y1865200D01*
X6711600Y1856100D01*
X6706800Y1846900D01*
X6699900Y1840300D01*
X6693100Y1839000D01*
X6686300Y1841600D01*
X6681500Y1848200D01*
G01X7112000Y2387600D02*
Y1676400D01*
X6858000D01*
Y2387600D01*
X7112000D01*
G01X6547600Y2167800D02*
Y2246500D01*
X6572000D01*
X6579800Y2242600D01*
X6584600Y2237300D01*
X6586600Y2226800D01*
X6584600Y2216300D01*
X6578800Y2209800D01*
X6572000Y2205800D01*
X6547600D01*
G01X6572000D02*
X6586600Y2167800D01*
G01X6645800D02*
Y2246500D01*
X6634100Y2230800D01*
G01Y2167800D02*
X6657500D01*
G01X6703100Y2179600D02*
X6708900Y2173000D01*
X6715700Y2169100D01*
X6724500Y2167800D01*
X6733300Y2170400D01*
X6740100Y2175700D01*
X6744900Y2184900D01*
X6745900Y2195300D01*
X6744000Y2205800D01*
X6739100Y2212400D01*
X6732300Y2217600D01*
X6725500Y2219000D01*
X6718700Y2217600D01*
X6709900Y2212400D01*
X6712800Y2246500D01*
X6739100D01*
G01X7112000Y4038600D02*
Y3327400D01*
X6858000D01*
Y4038600D01*
X7112000D01*
G01X6835600Y3568700D02*
Y3490000D01*
X6811200D01*
X6803400Y3493900D01*
X6798600Y3499200D01*
X6796600Y3509700D01*
X6798600Y3520200D01*
X6804400Y3526700D01*
X6811200Y3530700D01*
X6835600D01*
G01X6811200D02*
X6796600Y3568700D01*
G01X6753900Y3559500D02*
X6747100Y3566100D01*
X6739300Y3568700D01*
X6731600Y3566100D01*
X6724700Y3558200D01*
X6719900Y3546400D01*
X6717900Y3534600D01*
Y3520200D01*
X6719900Y3508400D01*
X6724700Y3497900D01*
X6730600Y3492600D01*
X6737400Y3490000D01*
X6745200Y3492600D01*
X6751000Y3497900D01*
X6754900Y3505700D01*
X6756900Y3516200D01*
X6754900Y3525400D01*
X6750100Y3534600D01*
X6744200Y3539800D01*
X6737400Y3541200D01*
X6729600Y3538500D01*
X6723800Y3532000D01*
X6717900Y3520200D01*
G01X6650600Y3797300D02*
Y3876000D01*
X6675000D01*
X6682800Y3872100D01*
X6687600Y3866800D01*
X6689600Y3856300D01*
X6687600Y3845800D01*
X6681800Y3839300D01*
X6675000Y3835300D01*
X6650600D01*
G01X6675000D02*
X6689600Y3797300D01*
G01X6748800D02*
Y3876000D01*
X6737100Y3860300D01*
G01Y3797300D02*
X6760500D01*
G01X6839200D02*
Y3876000D01*
X6803200Y3819600D01*
X6851800D01*
G01X6921500Y4672100D02*
X6830500D01*
X6811400Y4665700D01*
X6798700Y4652800D01*
X6794500Y4636800D01*
X6798700Y4620700D01*
X6811400Y4607800D01*
X6830500Y4601400D01*
X6921500D01*
G01X6819900Y4542600D02*
X6805100Y4533000D01*
X6796600Y4520100D01*
X6794500Y4505600D01*
X6796600Y4492800D01*
X6807200Y4479900D01*
X6819900Y4471900D01*
X6832600Y4470300D01*
X6847400Y4473500D01*
X6858000Y4484700D01*
X6862200Y4496000D01*
Y4510500D01*
G01Y4496000D02*
X6868600Y4486300D01*
X6879200Y4478300D01*
X6891900Y4475100D01*
X6904600Y4478300D01*
X6915100Y4486300D01*
X6921500Y4500800D01*
X6919400Y4515300D01*
X6910900Y4529800D01*
G01X7302500Y1676400D02*
Y2387600D01*
X7556500D01*
Y1676400D01*
X7302500D01*
G01X7539600Y2146300D02*
Y2225000D01*
X7564000D01*
X7571800Y2221100D01*
X7576600Y2215800D01*
X7578600Y2205300D01*
X7576600Y2194800D01*
X7570800Y2188300D01*
X7564000Y2184300D01*
X7539600D01*
G01X7564000D02*
X7578600Y2146300D01*
G01X7637800D02*
Y2225000D01*
X7626100Y2209300D01*
G01Y2146300D02*
X7649500D01*
G01X7716500D02*
X7723300Y2147600D01*
X7731100Y2151500D01*
X7736000Y2158100D01*
X7737900Y2167300D01*
X7736000Y2176500D01*
X7730100Y2184300D01*
X7721400Y2188300D01*
X7711600D01*
X7705800Y2190900D01*
X7700900Y2197500D01*
X7699000Y2206600D01*
X7701900Y2215800D01*
X7708700Y2222400D01*
X7716500Y2225000D01*
X7724300Y2222400D01*
X7731100Y2215800D01*
X7734000Y2206600D01*
X7732100Y2197500D01*
X7727200Y2190900D01*
X7721400Y2188300D01*
X7711600D01*
X7702900Y2184300D01*
X7697000Y2176500D01*
X7695100Y2167300D01*
X7697000Y2158100D01*
X7701900Y2151500D01*
X7709700Y2147600D01*
X7716500Y2146300D01*
G01X7302500Y3327400D02*
Y4038600D01*
X7556500D01*
Y3327400D01*
X7302500D01*
G01X7539600Y3797300D02*
Y3876000D01*
X7564000D01*
X7571800Y3872100D01*
X7576600Y3866800D01*
X7578600Y3856300D01*
X7576600Y3845800D01*
X7570800Y3839300D01*
X7564000Y3835300D01*
X7539600D01*
G01X7564000D02*
X7578600Y3797300D01*
G01X7637800D02*
Y3876000D01*
X7626100Y3860300D01*
G01Y3797300D02*
X7649500D01*
G01X7714600D02*
X7716500Y3814400D01*
X7719400Y3828800D01*
X7723300Y3841900D01*
X7728200Y3856300D01*
X7736000Y3876000D01*
X7697000D01*
G01X8657200Y3992800D02*
X8720700D01*
Y3979300D01*
X8717500Y3973800D01*
X8713300Y3969800D01*
X8706900Y3966400D01*
X8699500Y3963700D01*
X8688900Y3963000D01*
X8678400Y3963700D01*
X8671000Y3966400D01*
X8664600Y3969800D01*
X8660400Y3973800D01*
X8657200Y3979300D01*
Y3992800D01*
G01X8710100Y3935000D02*
X8716500Y3930900D01*
X8719600Y3926200D01*
X8720700Y3920700D01*
X8718600Y3914000D01*
X8713300Y3909200D01*
X8706900Y3907900D01*
X8700600Y3908600D01*
X8695300Y3911300D01*
X8684700Y3924800D01*
X8677300Y3930900D01*
X8666700Y3935000D01*
X8657200Y3936300D01*
Y3907900D01*
G01X8357500Y3607000D02*
Y4089600D01*
X8611500D01*
Y3607000D01*
X8357500D01*
G01Y3695900D02*
X8611500D01*
G01X8357500Y3683200D02*
X8611500D01*
G01X8753000Y2192400D02*
Y2903600D01*
X9007000D01*
Y2192400D01*
X8753000D01*
G01X9344600Y2870000D02*
X9352400Y2874900D01*
X9357700Y2880700D01*
X9360300Y2887600D01*
X9357700Y2895300D01*
X9352400Y2901200D01*
X9344600Y2907000D01*
X9334100Y2909000D01*
X9281600D01*
G01X9360300Y2968200D02*
X9281600D01*
X9297300Y2956500D01*
G01X9360300D02*
Y2979900D01*
G01X9627000Y2873000D02*
X9373000D01*
Y3381000D01*
X9627000D01*
Y2873000D01*
G01X8990100Y2662300D02*
Y2741000D01*
X9014500D01*
X9022300Y2737100D01*
X9027100Y2731800D01*
X9029100Y2721300D01*
X9027100Y2710800D01*
X9021300Y2704300D01*
X9014500Y2700300D01*
X8990100D01*
G01X9014500D02*
X9029100Y2662300D01*
G01X9088300D02*
Y2741000D01*
X9076600Y2725300D01*
G01Y2662300D02*
X9100000D01*
G01X9167000Y2741000D02*
X9159200Y2738400D01*
X9153400Y2731800D01*
X9149500Y2723900D01*
X9146600Y2713500D01*
X9145600Y2701600D01*
X9146600Y2689800D01*
X9149500Y2679400D01*
X9153400Y2671500D01*
X9159200Y2664900D01*
X9167000Y2662300D01*
X9174800Y2664900D01*
X9180600Y2671500D01*
X9184500Y2679400D01*
X9187400Y2689800D01*
X9188400Y2701600D01*
X9187400Y2713500D01*
X9184500Y2723900D01*
X9180600Y2731800D01*
X9174800Y2738400D01*
X9167000Y2741000D01*
M02*
