G04 ================== begin FILE IDENTIFICATION RECORD ==================*
G04 Layout Name:  C:/USERS/USER/DESKTOP/VSCODE_ORCAD/WORKSPACE/CAD3/allegro/CAD3.brd*
G04 Film Name:    skikb*
G04 File Format:  Gerber RS274X*
G04 File Origin:  Cadence Allegro 17.2-P019*
G04 Origin Date:  Wed Jul 31 16:17:33 2019*
G04 *
G04 Layer:  REF DES/SILKSCREEN_BOTTOM*
G04 Layer:  PACKAGE GEOMETRY/SILKSCREEN_TOP*
G04 Layer:  PACKAGE GEOMETRY/SILKSCREEN_BOTTOM*
G04 Layer:  BOARD GEOMETRY/SILKSCREEN_TOP*
G04 Layer:  BOARD GEOMETRY/SILKSCREEN_BOTTOM*
G04 *
G04 Offset:    (0.000 0.000)*
G04 Mirror:    No*
G04 Mode:      Positive*
G04 Rotation:  0*
G04 FullContactRelief:  No*
G04 UndefLineWidth:     0.200*
G04 ================== end FILE IDENTIFICATION RECORD ====================*
%FSLAX25Y25*MOMM*%
%IR0*IPPOS*OFA0.00000B0.00000*MIA0B0*SFA1.00000B1.00000*%
%ADD10C,.5*%
%ADD11C,.2*%
G75*
%LPD*%
G75*
G54D10*
G01X2627900Y720000D02*
X2494500D01*
Y1120000D01*
X2627900D01*
G01X2574500Y926700D02*
X2494500D01*
G01X2709700Y1120000D02*
Y720000D01*
X2843100D01*
G01X3058300D02*
X2924900D01*
Y1120000D01*
X3058300D01*
G01X3004900Y926700D02*
X2924900D01*
G01X3280100Y1086700D02*
X3260100Y1106700D01*
X3236800Y1120000D01*
X3210100D01*
X3180100Y1100000D01*
X3156800Y1066700D01*
X3140100Y1026700D01*
X3126800Y960000D01*
X3123500Y900000D01*
X3130100Y840000D01*
X3140100Y800000D01*
X3160100Y760000D01*
X3183500Y733300D01*
X3206800Y720000D01*
X3230100D01*
X3253500Y733300D01*
X3273500Y753300D01*
X3290100Y780000D01*
G01X3422000Y1120000D02*
Y720000D01*
G01X3345300Y1120000D02*
X3498700D01*
G01X3570500Y720000D02*
Y1120000D01*
X3653900D01*
X3680500Y1100000D01*
X3697200Y1073300D01*
X3703900Y1020000D01*
X3697200Y966700D01*
X3677200Y933300D01*
X3653900Y913300D01*
X3570500D01*
G01X3653900D02*
X3703900Y720000D01*
G01X3852400D02*
X3825700Y726700D01*
X3802400Y753300D01*
X3782400Y793300D01*
X3769100Y840000D01*
X3762400Y893300D01*
Y946700D01*
X3769100Y1000000D01*
X3782400Y1046700D01*
X3802400Y1086700D01*
X3825700Y1113300D01*
X3852400Y1120000D01*
X3879100Y1113300D01*
X3902400Y1086700D01*
X3922400Y1046700D01*
X3935700Y1000000D01*
X3942400Y946700D01*
Y893300D01*
X3935700Y840000D01*
X3922400Y793300D01*
X3902400Y753300D01*
X3879100Y726700D01*
X3852400Y720000D01*
G01X3990900D02*
Y1120000D01*
X4144300Y720000D01*
Y1120000D01*
G01X4242800D02*
X4322800D01*
G01X4282800D02*
Y720000D01*
G01X4242800D02*
X4322800D01*
G01X4571300Y1086700D02*
X4551300Y1106700D01*
X4528000Y1120000D01*
X4501300D01*
X4471300Y1100000D01*
X4448000Y1066700D01*
X4431300Y1026700D01*
X4418000Y960000D01*
X4414700Y900000D01*
X4421300Y840000D01*
X4431300Y800000D01*
X4451300Y760000D01*
X4474700Y733300D01*
X4498000Y720000D01*
X4521300D01*
X4544700Y733300D01*
X4564700Y753300D01*
X4581300Y780000D01*
G01X5001700Y1086700D02*
X4981700Y1106700D01*
X4958400Y1120000D01*
X4931700D01*
X4901700Y1100000D01*
X4878400Y1066700D01*
X4861700Y1026700D01*
X4848400Y960000D01*
X4845100Y900000D01*
X4851700Y840000D01*
X4861700Y800000D01*
X4881700Y760000D01*
X4905100Y733300D01*
X4928400Y720000D01*
X4951700D01*
X4975100Y733300D01*
X4995100Y753300D01*
X5011700Y780000D01*
G01X5060300Y720000D02*
X5143600Y1120000D01*
X5226900Y720000D01*
G01X5196900Y860000D02*
X5090300D01*
G01X5285500Y720000D02*
Y1120000D01*
X5352100D01*
X5378800Y1100000D01*
X5398800Y1073300D01*
X5415500Y1033300D01*
X5428800Y986700D01*
X5432100Y920000D01*
X5428800Y853300D01*
X5415500Y806700D01*
X5398800Y766700D01*
X5378800Y740000D01*
X5352100Y720000D01*
X5285500D01*
G01X3423100Y6240000D02*
Y6640000D01*
X3489700D01*
X3516400Y6620000D01*
X3536400Y6593300D01*
X3553100Y6553300D01*
X3566400Y6506700D01*
X3569700Y6440000D01*
X3566400Y6373300D01*
X3553100Y6326700D01*
X3536400Y6286700D01*
X3516400Y6260000D01*
X3489700Y6240000D01*
X3423100D01*
G01X3628300D02*
X3711600Y6640000D01*
X3794900Y6240000D01*
G01X3764900Y6380000D02*
X3658300D01*
G01X4215300Y6606700D02*
X4195300Y6626700D01*
X4172000Y6640000D01*
X4145300D01*
X4115300Y6620000D01*
X4092000Y6586700D01*
X4075300Y6546700D01*
X4062000Y6480000D01*
X4058700Y6420000D01*
X4065300Y6360000D01*
X4075300Y6320000D01*
X4095300Y6280000D01*
X4118700Y6253300D01*
X4142000Y6240000D01*
X4165300D01*
X4188700Y6253300D01*
X4208700Y6273300D01*
X4225300Y6300000D01*
G01X4357200Y6240000D02*
X4330500Y6246700D01*
X4307200Y6273300D01*
X4287200Y6313300D01*
X4273900Y6360000D01*
X4267200Y6413300D01*
Y6466700D01*
X4273900Y6520000D01*
X4287200Y6566700D01*
X4307200Y6606700D01*
X4330500Y6633300D01*
X4357200Y6640000D01*
X4383900Y6633300D01*
X4407200Y6606700D01*
X4427200Y6566700D01*
X4440500Y6520000D01*
X4447200Y6466700D01*
Y6413300D01*
X4440500Y6360000D01*
X4427200Y6313300D01*
X4407200Y6273300D01*
X4383900Y6246700D01*
X4357200Y6240000D01*
G01X4495700D02*
Y6640000D01*
X4649100Y6240000D01*
Y6640000D01*
G01X4704300D02*
X4787600Y6240000D01*
X4870900Y6640000D01*
G01X5069500Y6240000D02*
X4936100D01*
Y6640000D01*
X5069500D01*
G01X5016100Y6446700D02*
X4936100D01*
G01X5151300Y6240000D02*
Y6640000D01*
X5234700D01*
X5261300Y6620000D01*
X5278000Y6593300D01*
X5284700Y6540000D01*
X5278000Y6486700D01*
X5258000Y6453300D01*
X5234700Y6433300D01*
X5151300D01*
G01X5234700D02*
X5284700Y6240000D01*
G01X5433200Y6640000D02*
Y6240000D01*
G01X5356500Y6640000D02*
X5509900D01*
G01X5648400Y6240000D02*
X5621700Y6246700D01*
X5598400Y6273300D01*
X5578400Y6313300D01*
X5565100Y6360000D01*
X5558400Y6413300D01*
Y6466700D01*
X5565100Y6520000D01*
X5578400Y6566700D01*
X5598400Y6606700D01*
X5621700Y6633300D01*
X5648400Y6640000D01*
X5675100Y6633300D01*
X5698400Y6606700D01*
X5718400Y6566700D01*
X5731700Y6520000D01*
X5738400Y6466700D01*
Y6413300D01*
X5731700Y6360000D01*
X5718400Y6313300D01*
X5698400Y6273300D01*
X5675100Y6246700D01*
X5648400Y6240000D01*
G01X5796900D02*
Y6640000D01*
X5880300D01*
X5906900Y6620000D01*
X5923600Y6593300D01*
X5930300Y6540000D01*
X5923600Y6486700D01*
X5903600Y6453300D01*
X5880300Y6433300D01*
X5796900D01*
G01X5880300D02*
X5930300Y6240000D01*
G54D11*
G01X373000Y3627000D02*
X627000D01*
Y2611000D01*
X373000D01*
Y3627000D01*
G01X473000Y5153000D02*
Y5661000D01*
X727000D01*
Y5153000D01*
X473000D01*
G01X1651000Y4102100D02*
Y3390900D01*
X1397000D01*
Y4102100D01*
X1651000D01*
G01X1397000Y4991100D02*
Y5143500D01*
X1460500Y5207000D01*
Y5334000D01*
X1397000Y5397500D01*
Y5549900D01*
X2413000D01*
Y4991100D01*
X1397000D01*
G01X2040500Y3392400D02*
Y4103600D01*
X2294500D01*
Y3392400D01*
X2040500D01*
G01X2768600Y6096000D02*
X2057400D01*
Y6350000D01*
X2768600D01*
Y6096000D01*
G01X3240500Y3392400D02*
Y4103600D01*
X3494500D01*
Y3392400D01*
X3240500D01*
G01X2640500D02*
Y4103600D01*
X2894500D01*
Y3392400D01*
X2640500D01*
G01X2984500Y4991100D02*
Y5143500D01*
X3048000Y5207000D01*
Y5334000D01*
X2984500Y5397500D01*
Y5549900D01*
X4000500D01*
Y4991100D01*
X2984500D01*
G01X3749000Y3335400D02*
Y4046600D01*
X4003000D01*
Y3335400D01*
X3749000D01*
G01X4127500Y4978400D02*
Y5689600D01*
X4381500D01*
Y4978400D01*
X4127500D01*
G01X5270500Y3835400D02*
Y3683000D01*
X5207000Y3619500D01*
Y3492500D01*
X5270500Y3429000D01*
Y3276600D01*
X4254500D01*
Y3835400D01*
X5270500D01*
G01X4762500Y5689600D02*
Y4978400D01*
X4508500D01*
Y5689600D01*
X4762500D01*
G01X5590500Y1697900D02*
Y2409100D01*
X5844500D01*
Y1697900D01*
X5590500D01*
G01X5588000Y3429000D02*
Y3911600D01*
X5842000D01*
Y3429000D01*
X5588000D01*
G01Y3517900D02*
X5842000D01*
G01X5588000Y3505200D02*
X5842000D01*
G01X5207000Y5689600D02*
Y4978400D01*
X4953000D01*
Y5689600D01*
X5207000D01*
G01X7302500Y5549900D02*
X5397500D01*
Y4991100D01*
X7302500D01*
Y5143500D01*
X7239000Y5207000D01*
Y5334000D01*
X7302500Y5397500D01*
Y5549900D01*
G01X6310500Y1697900D02*
Y2409100D01*
X6564500D01*
Y1697900D01*
X6310500D01*
G01X6413500Y3327400D02*
Y4038600D01*
X6667500D01*
Y3327400D01*
X6413500D01*
G01X5969000D02*
Y4038600D01*
X6223000D01*
Y3327400D01*
X5969000D01*
G01X7112000Y2387600D02*
Y1676400D01*
X6858000D01*
Y2387600D01*
X7112000D01*
G01Y4038600D02*
Y3327400D01*
X6858000D01*
Y4038600D01*
X7112000D01*
G01X7302500Y1676400D02*
Y2387600D01*
X7556500D01*
Y1676400D01*
X7302500D01*
G01Y3327400D02*
Y4038600D01*
X7556500D01*
Y3327400D01*
X7302500D01*
G01X8357500Y3607000D02*
Y4089600D01*
X8611500D01*
Y3607000D01*
X8357500D01*
G01Y3695900D02*
X8611500D01*
G01X8357500Y3683200D02*
X8611500D01*
G01X8753000Y2192400D02*
Y2903600D01*
X9007000D01*
Y2192400D01*
X8753000D01*
G01X9627000Y2873000D02*
X9373000D01*
Y3381000D01*
X9627000D01*
Y2873000D01*
M02*
